PathFileType	4	(X/Y/Z)	Patient4_TMGait_0pt5_01_left_04.trc.trc
DataRate	CameraRate	NumFrames	NumMarkers	Units	OrigDataRate	OrigDataStartFrame	OrigNumFrames
73.684210526316	73.684210526316	4	33	mm	73.684210526316	18	       141
Frame#	Time	L.ASIS			Sacral			L.Shoulder			Chest			R.Shoulder			Neck			R.ASIS			R.Thigh.Superior			R.Thigh.Lateral			R.Thigh.Inferior			R.Patella			L.Thigh.Superior			L.Thigh.Lateral			L.Thigh.Inferior			L.Patella			L.Shank.Superior			L.Shank.Lateral			L.Shank.Inferior			R.Shank.Superior			R.Shank.Lateral			R.Shank.Inferior			R.Heel			R.Midfoot.Superior			R.Midfoot.Lateral			R.Toe			L.Heel			L.Midfoot.Lateral			L.Midfoot.Superior			L.Toe			L.Elbow			L.Wrist			R.Elbow			R.Wrist			
		X1	Y1	Z1	X2	Y2	Z2	X3	Y3	Z3	X4	Y4	Z4	X5	Y5	Z5	X6	Y6	Z6	X7	Y7	Z7	X8	Y8	Z8	X9	Y9	Z9	X10	Y10	Z10	X11	Y11	Z11	X12	Y12	Z12	X13	Y13	Z13	X14	Y14	Z14	X15	Y15	Z15	X16	Y16	Z16	X17	Y17	Z17	X18	Y18	Z18	X19	Y19	Z19	X20	Y20	Z20	X21	Y21	Z21	X22	Y22	Z22	X23	Y23	Z23	X24	Y24	Z24	X25	Y25	Z25	X26	Y26	Z26	X27	Y27	Z27	X28	Y28	Z28	X29	Y29	Z29	X30	Y30	Z30	X31	Y31	Z31	X32	Y32	Z32	X33	Y33	Z33	

18	5.450714285714	698.457394722616	965.876040731839	370.460188810648	509.613139733663	1009.012535411019	558.134555986412	659.306328651093	1433.513078541126	354.265716889855	783.291278219586	1361.531687177026	498.491934445107	729.174341100306	1440.542647429550	682.309067594588	684.452435277763	1495.357320048331	502.898572146878	746.699741363567	936.367000421929	640.731172729381	755.672721094510	728.754633380384	605.847477488748	664.508100037027	628.934564077868	671.937907843348	722.177519554705	569.143985310411	584.280945692131	708.389168131182	483.124798464714	588.153412528114	770.989765115368	775.950296966577	398.061720224417	720.605086609509	653.700743437735	320.191969522335	815.533870082498	587.721891011710	388.230925573005	843.183052092415	529.303787837494	383.880809875270	835.527646087435	461.221406743245	367.955677702176	791.005244604174	324.202603268350	311.226909156301	890.650701262487	237.488357819065	367.966801491907	674.734961636088	396.945669505005	594.241179621120	598.011643325691	297.885252778399	655.693748622683	627.611750447150	202.238060063262	588.520688105920	479.454870767791	43.556852608125	557.474091231263	651.342092109769	96.285779021349	593.385677957243	562.363165938881	36.125399603881	631.923627465391	770.732462802791	41.512198197699	622.629697077641	832.824109723954	43.623347562893	401.074953431419	910.768722534004	59.545650603911	325.861616030108	965.848873189969	149.331881181422	347.668261757851	1104.595546102165	143.641344129293	332.072510191467	543.831969241954	1090.909455774526	266.316761583349	536.734455189417	832.277949619993	252.310948888788	858.770888372401	1134.458787745443	807.345807422951	1096.147820656949	1171.015462979739	728.300275980213	
19	5.464285714286	698.400271706737	964.585144262531	369.665779323825	509.951500039840	1007.827749340515	557.804580597466	658.477626069950	1432.805657576375	353.809574162388	782.769691505003	1360.793542679153	497.693942416393	728.885241252684	1439.504105474696	681.635781493530	683.739835111699	1494.450852279634	502.511917947064	747.181779457740	935.790302429481	640.008676546182	755.073643161254	727.743230350857	605.476573775589	663.220328933501	628.153635423391	671.523019237344	720.350728304469	568.085736075106	583.916162570197	705.811067738332	481.905721384578	587.627351670665	770.858925969682	774.603483789284	396.957993128854	719.195006341689	651.655593032875	320.563539899140	815.237465495748	586.442436502085	387.212177566471	842.622850336519	528.102226590263	383.467083208128	835.221678873347	459.942371720061	368.186093798124	790.861222538247	322.688517695265	312.844506350239	891.275793184628	236.898448909020	369.171724916877	671.284119667077	395.943392669204	593.795117306683	593.811712012413	297.610147449966	655.467891550538	622.155057098541	201.683841553949	588.260380418426	472.700856768282	43.607033404520	557.506617978176	644.633605643603	96.225663159457	593.352207875600	555.623436999000	36.075504720833	631.868562870859	764.000528004920	41.360589776569	622.639420640210	834.419874550440	43.975641258983	404.101121923224	911.611508632068	59.017481804064	328.217919107852	966.990814792124	148.482077037982	348.908761916321	1105.216777309915	142.232872701087	332.470140922576	542.132056164167	1090.852523143265	265.773986505757	534.170239911499	832.245801479750	251.352655447864	863.245990177690	1134.901038873557	803.729815822062	1098.402399629838	1177.228530223015	721.864053510447	
20	5.477857142857	698.742269064124	963.133195968793	368.857880350011	510.428121418486	1006.513379498230	557.215141846474	657.614055962659	1431.955570905514	353.154518377639	782.216238739628	1360.014054065220	496.761815373731	728.441821654366	1438.399391925245	680.820036717574	682.899837791063	1493.447803112780	501.936378533051	747.785308197889	935.202769846731	639.352832037876	754.491552538901	726.637528718363	605.206696502630	661.821056548406	627.352190673936	671.137242119816	718.478713304178	566.955465002521	583.657982613931	703.139302612071	480.626357323408	587.144829512794	771.673895602141	773.500969756545	395.699625359803	718.483600880862	649.512706082534	321.186800943022	815.982498122756	585.255925246119	385.970302729458	842.866346446849	526.487956358388	383.019433157367	835.181653793165	457.965363767710	368.629277258048	789.598833796324	321.009055978684	314.608344333734	889.747980056679	235.132809595157	370.587695632319	667.734452409729	394.917130913873	593.396143623193	589.513049789988	297.316490249063	655.282297676805	616.623584063813	201.114215764139	588.031787539407	465.892195219447	43.610924111546	557.545112952310	637.874676978296	96.150038166065	593.333801472467	548.834207239245	35.990148664881	631.830481383439	757.232307567015	41.215744282438	622.658455181056	831.720231204545	44.048022589045	407.054080858213	908.293243671530	57.529051629893	330.503402106251	965.021117340012	145.790523223399	350.378680857154	1102.546513974369	137.316981199259	332.993878524089	540.712932858638	1090.552143636385	264.883081062932	532.615216410769	831.923121308542	250.004737078060	866.997529915837	1135.049436037754	800.090685053325	1100.031770536328	1182.427640539895	715.592061984628	
21	5.491428571429	699.526586502950	961.524030579537	368.054573918271	511.061177943040	1005.083973869866	556.353921057835	656.738432331127	1430.956371530175	352.295030813942	781.654595954010	1359.195167684816	495.695857063760	727.854708726771	1437.231056333460	679.861529249780	681.957436578647	1492.351141562403	501.158082993409	748.516142784559	934.578639198803	638.770460030654	753.915543583378	725.428002961989	605.038593253494	660.287618284466	626.540208950409	670.785988122231	716.536324495335	565.755330883999	583.510060499648	700.338835275524	479.295368497427	586.716439281657	773.330075133852	772.497908460472	394.359881646208	718.395797867505	647.260712653079	321.986988323764	817.498279260276	584.018516160235	384.671230347300	843.653446037548	524.427448987476	382.680255576778	835.304355642521	455.339071320368	369.310427963248	787.458398256885	319.069178998902	316.417626880249	886.488020464122	232.251639758185	372.196522988771	664.068080176115	393.878752835180	593.053693962659	585.094479204752	297.013306053074	655.145457731330	611.010543204867	200.537824445919	587.844154486205	459.034170522496	43.579053599957	557.596021847313	631.068498322426	96.055769278310	593.334354508841	542.000430931775	35.872521458512	631.812175485618	750.432983376822	41.069901222326	622.688666845641	825.497737588028	43.680511298140	409.758511990081	901.666585829018	55.126505337617	332.637602579675	960.600774815344	141.429239450017	352.124280559232	1097.326529021900	129.350436291982	333.839947655277	539.524639539703	1090.010861972727	263.663209095611	532.042009771381	831.314428336308	248.288432977123	870.026286231151	1134.875348076924	796.492483301733	1101.095101378523	1186.572741313794	709.539372714408	
